<!-- <svg xmlns="http://www.w3.org/2000/svg" viewBox="0 0 841.9 595.3">
    <g fill="#61DAFB">
        <path d="M666.3 296.5c0-32.5-40.7-63.3-103.1-82.4 14.4-63.6 8-114.2-20.2-130.4-6.5-3.8-14.1-5.6-22.4-5.6v22.3c4.6 0 8.3.9 11.4 2.6 13.6 7.8 19.5 37.5 14.9 75.7-1.1 9.4-2.9 19.3-5.1 29.4-19.6-4.8-41-8.5-63.5-10.9-13.5-18.5-27.5-35.3-41.6-50 32.6-30.3 63.2-46.9 84-46.9V78c-27.5 0-63.5 19.6-99.9 53.6-36.4-33.8-72.4-53.2-99.9-53.2v22.3c20.7 0 51.4 16.5 84 46.6-14 14.7-28 31.4-41.3 49.9-22.6 2.4-44 6.1-63.6 11-2.3-10-4-19.7-5.2-29-4.7-38.2 1.1-67.9 14.6-75.8 3-1.8 6.9-2.6 11.5-2.6V78.5c-8.4 0-16 1.8-22.6 5.6-28.1 16.2-34.4 66.7-19.9 130.1-62.2 19.2-102.7 49.9-102.7 82.3 0 32.5 40.7 63.3 103.1 82.4-14.4 63.6-8 114.2 20.2 130.4 6.5 3.8 14.1 5.6 22.5 5.6 27.5 0 63.5-19.6 99.9-53.6 36.4 33.8 72.4 53.2 99.9 53.2 8.4 0 16-1.8 22.6-5.6 28.1-16.2 34.4-66.7 19.9-130.1 62-19.1 102.5-49.9 102.5-82.3zm-130.2-66.7c-3.7 12.9-8.3 26.2-13.5 39.5-4.1-8-8.4-16-13.1-24-4.6-8-9.5-15.8-14.4-23.4 14.2 2.1 27.9 4.7 41 7.9zm-45.8 106.5c-7.8 13.5-15.8 26.3-24.1 38.2-14.9 1.3-30 2-45.2 2-15.1 0-30.2-.7-45-1.9-8.3-11.9-16.4-24.6-24.2-38-7.6-13.1-14.5-26.4-20.8-39.8 6.2-13.4 13.2-26.8 20.7-39.9 7.8-13.5 15.8-26.3 24.1-38.2 14.9-1.3 30-2 45.2-2 15.1 0 30.2.7 45 1.9 8.3 11.9 16.4 24.6 24.2 38 7.6 13.1 14.5 26.4 20.8 39.8-6.3 13.4-13.2 26.8-20.7 39.9zm32.3-13c5.4 13.4 10 26.8 13.8 39.8-13.1 3.2-26.9 5.9-41.2 8 4.9-7.7 9.8-15.6 14.4-23.7 4.6-8 8.9-16.1 13-24.1zM421.2 430c-9.3-9.6-18.6-20.3-27.8-32 9 .4 18.2.7 27.5.7 9.4 0 18.7-.2 27.8-.7-9 11.7-18.3 22.4-27.5 32zm-74.4-58.9c-14.2-2.1-27.9-4.7-41-7.9 3.7-12.9 8.3-26.2 13.5-39.5 4.1 8 8.4 16 13.1 24 4.7 8 9.5 15.8 14.4 23.4zM420.7 163c9.3 9.6 18.6 20.3 27.8 32-9-.4-18.2-.7-27.5-.7-9.4 0-18.7.2-27.8.7 9-11.7 18.3-22.4 27.5-32zm-74 58.9c-4.9 7.7-9.8 15.6-14.4 23.7-4.6 8-8.9 16-13 24-5.4-13.4-10-26.8-13.8-39.8 13.1-3.1 26.9-5.8 41.2-7.9zm-90.5 125.2c-35.4-15.1-58.3-34.9-58.3-50.6 0-15.7 22.9-35.6 58.3-50.6 8.6-3.7 18-7 27.7-10.1 5.7 19.6 13.2 40 22.5 60.9-9.2 20.8-16.6 41.1-22.2 60.6-9.9-3.1-19.3-6.5-28-10.2zM310 490c-13.6-7.8-19.5-37.5-14.9-75.7 1.1-9.4 2.9-19.3 5.1-29.4 19.6 4.8 41 8.5 63.5 10.9 13.5 18.5 27.5 35.3 41.6 50-32.6 30.3-63.2 46.9-84 46.9-4.5-.1-8.3-1-11.3-2.7zm237.2-76.2c4.7 38.2-1.1 67.9-14.6 75.8-3 1.8-6.9 2.6-11.5 2.6-20.7 0-51.4-16.5-84-46.6 14-14.7 28-31.4 41.3-49.9 22.6-2.4 44-6.1 63.6-11 2.3 10.1 4.1 19.8 5.2 29.1zm38.5-66.7c-8.6 3.7-18 7-27.7 10.1-5.7-19.6-13.2-40-22.5-60.9 9.2-20.8 16.6-41.1 22.2-60.6 9.9 3.1 19.3 6.5 28.1 10.2 35.4 15.1 58.3 34.9 58.3 50.6-.1 15.7-23 35.6-58.4 50.6zM320.8 78.4z"/>
        <circle cx="420.9" cy="296.5" r="45.7"/>
        <path d="M520.5 78.1z"/>
    </g>
</svg> -->
<svg xmlns="http://www.w3.org/2000/svg" width="256" height="256" viewBox="0 0 256 256">
  <defs>
    <style>
      .cls-1 {
        fill: #2c006d;
      }

      .cls-1, .cls-2 {
        fill-rule: evenodd;
      }

      .cls-2 {
        fill: #5e9cd6;
      }
    </style>
  </defs>
  <path class="cls-1" d="M254.871,182.748H231.3L221.649,200.5l-8.825-17.652H183.547v3.219L204.1,218.053l-20.452,34.681v3.738H204.83l10.693-20.248,10.071,20.352h30.834v-0.727l-23.255-37.693Z"/>
  <path class="cls-2" d="M172.56,211.167c-1.528,0-2.661.736-2.661,2.038,0,1.812,1.359,2.548,6.285,3.907,10.7,2.945,13.873,6.57,13.873,12.969,0,9.4-7.984,13.025-17.78,13.025s-15.3-4.228-16.971-10.167l12.821-3.255h0.016c0.227,3.115,1.7,4.417,4.3,4.417,2.095,0,3.114-.905,3.114-2.548,0-1.812-1.3-2.888-6.511-4.3-10.533-2.831-13.137-7.135-13.137-12.232,0-8.551,7.021-12.8,16.42-12.8,8.645,0,14.924,3.347,16.5,10.116l-12.824,2.713C175.95,212.963,174.985,211.167,172.56,211.167Zm-19.168,30.919H120.777V203.238h13.93v28.768h18.685v10.08h0Zm-56.023,1.02c-13.307,0-19.138-8.5-19.138-20.613,0-11.384,5.832-20.275,19.818-20.275,13.589,0,19.364,9.231,19.364,20.161C117.413,234.045,112.261,243.106,97.369,243.106Zm0.454-31.147c-3.454,0-4.361,3.058-4.361,10.306,0,7.477.793,11.157,4.416,11.157,3.568,0,4.3-3.454,4.3-11.326C102.182,215.074,101.5,211.959,97.822,211.959ZM56.361,243.106c-13.307,0-19.139-8.5-19.139-20.613,0-11.384,5.832-20.275,19.818-20.275,13.589,0,19.365,9.231,19.365,20.161C76.405,234.045,71.252,243.106,56.361,243.106Zm0.453-31.147c-3.454,0-4.36,3.058-4.36,10.306,0,7.477.793,11.157,4.417,11.157,3.567,0,4.3-3.454,4.3-11.326,0-7.022-.679-10.137-4.36-10.137h0ZM24.726,242.086H10.23V213.149H-0.057v-9.911h35v9.911H24.726v28.937Z"/>
  <path class="cls-2" d="M37.224,31.664c10.615-4.282,22.177-7.54,33.585-7.848a89.073,89.073,0,0,1,52.684,15.323c19.758,13.287,31.827,33.4,36.646,53.256a88.51,88.51,0,0,1,1.142,36.645,86.621,86.621,0,0,1-17.44,38.619,85.088,85.088,0,0,1-16.714,15.883A89.858,89.858,0,0,0,146.955,177a92.436,92.436,0,0,0,29.172-21.593c12-13.115,20.888-30.013,23.669-48.481a93.3,93.3,0,0,0,.312-24.292,96.5,96.5,0,0,0-4.983-21.7A93.307,93.307,0,0,0,127.334,1.559a94.172,94.172,0,0,0-30-1.142A97.019,97.019,0,0,0,73.455,6.023C59.528,11.314,47.444,20.387,37.224,31.664Z"/>
  <path class="cls-1" d="M117.265,41.1a79.289,79.289,0,0,0-14.639,11.109,88.109,88.109,0,0,0-19,27.2,88.059,88.059,0,0,0-6.956,21.18,83.832,83.832,0,0,0-.623,26.474,89.05,89.05,0,0,0,20.245,45.059,84.678,84.678,0,0,0,11.421,11,105.656,105.656,0,0,1-15.989-6.022A95.164,95.164,0,0,1,71.9,164.859,89.092,89.092,0,0,1,55.076,146.69,91.487,91.487,0,0,1,43.552,65.813,89.794,89.794,0,0,1,56.218,41a87.117,87.117,0,0,1,9.344-10.8A82.136,82.136,0,0,1,85.6,29.787a70.526,70.526,0,0,1,24.19,6.541A60.907,60.907,0,0,1,117.265,41.1ZM160.351,8.192l11,7.371c1.686,1.3,3.3,2.632,4.88,4.049A86.561,86.561,0,0,1,187.449,31.76c2.039,0.651,4.015,1.332,6.021,2.076,2.611,0.968,5.135,1.992,7.683,3.115A99.931,99.931,0,0,0,173.225,14.11,98.608,98.608,0,0,0,160.351,8.192Z"/>
</svg>
